<svg id="solbarcode" x="0px" y="0px" width="182px" height="58px" viewBox="0 0 182 58" xmlns="http://www.w3.org/2000/svg" version="1.1"><rect x="0" y="0" width="182" height="58" style="fill:#ffc0c0;"/> <g transform="translate(12, 10)" style="fill:#0;"> <rect x="0" y="0" width="4" height="38"/> <rect x="6" y="0" width="2" height="38"/> <rect x="12" y="0" width="6" height="38"/> <rect x="22" y="0" width="4" height="38"/> <rect x="28" y="0" width="4" height="38"/> <rect x="38" y="0" width="4" height="38"/> <rect x="44" y="0" width="6" height="38"/> <rect x="52" y="0" width="6" height="38"/> <rect x="60" y="0" width="4" height="38"/> <rect x="66" y="0" width="8" height="38"/> <rect x="78" y="0" width="2" height="38"/> <rect x="82" y="0" width="2" height="38"/> <rect x="88" y="0" width="6" height="38"/> <rect x="96" y="0" width="2" height="38"/> <rect x="104" y="0" width="4" height="38"/> <rect x="110" y="0" width="2" height="38"/> <rect x="114" y="0" width="8" height="38"/> <rect x="124" y="0" width="2" height="38"/> <rect x="132" y="0" width="4" height="38"/> <rect x="142" y="0" width="6" height="38"/> <rect x="150" y="0" width="2" height="38"/> <rect x="154" y="0" width="4" height="38"/></g></svg>

